{
  "title": "Guardians of the Galaxy 2014 1080p BluRay x264 Rus Eng HDAccess ",
  "uid": 11504323,
  "size": 14029404412,
  "categoryP": "video",
  "categoryS": "hd___movies",
  "magnet": "?xt=urn:btih:cc9266bb59f7789f62757d24d61470a87d14f04a&amp;dn=Guardians+of+the+Galaxy+2014+1080p+BluRay+x264+Rus+Eng+HDAccess+&amp;tr=udp%3A%2F%2Ftracker.openbittorrent.com%3A80&amp;tr=udp%3A%2F%2Fopen.demonii.com%3A1337&amp;tr=udp%3A%2F%2Ftracker.coppersurfer.tk%3A6969&amp;tr=udp%3A%2F%2Fexodus.desync.com%3A6969",
  "seeders": 71,
  "leechers": 0,
  "uploader": "darkj6",
  "files": -1,
  "time": 1416356081,
  "description": " ______   _______  ______    ___   _      ___  --------|\n|      | |   _   ||    _ |  |   | | |    |   ||   |----|    \n|  _    ||  |_|  ||   | ||  |   |_| |    |   ||   |___ \n| | |   ||       ||   |_||_ |      _|    |   ||    _  |\n| |_|   ||       ||    __  ||     |_  ___|   ||   | | |\n|       ||   _   ||   |  | ||    _  ||       ||   |_| |\n|______| |__| |__||___|  |_||___| |_||_______||_______|\n                             &lt;a href=&quot;\nhttps://thepiratebay.se/user/darkj6/&quot; rel=&quot;nofollow&quot; target=&quot;_NEW&quot;&gt;\nhttps://thepiratebay.se/user/darkj6/&lt;/a&gt;\n\nJoin ThePirateBay Forum:\n                                                      &lt;a href=&quot;\nhttps://forum.suprbay.org/member.php?action=register&amp;referrer=908&quot; rel=&quot;nofollow&quot; target=&quot;_NEW&quot;&gt;\nhttps://forum.suprbay.org/member.php?action=register&amp;referrer=908&lt;/a&gt;\n\n   &lt;a href=&quot;\nhttp://www.imdb.com/title/tt2015381/&quot; rel=&quot;nofollow&quot; target=&quot;_NEW&quot;&gt;\nhttp://www.imdb.com/title/tt2015381/&lt;/a&gt;\n &lt;a href=&quot;\nhttp://rupix.org/viewer.php?file=71974870734821966417.jpg&quot; rel=&quot;nofollow&quot; target=&quot;_NEW&quot;&gt;\nhttp://rupix.org/viewer.php?file=71974870734821966417.jpg&lt;/a&gt;\n &lt;a href=&quot;\nhttp://rupix.org/viewer.php?file=53074568447260498617.jpg&quot; rel=&quot;nofollow&quot; target=&quot;_NEW&quot;&gt;\nhttp://rupix.org/viewer.php?file=53074568447260498617.jpg&lt;/a&gt;\n &lt;a href=&quot;\nhttp://rupix.org/viewer.php?file=06768727009223122821.jpg&quot; rel=&quot;nofollow&quot; target=&quot;_NEW&quot;&gt;\nhttp://rupix.org/viewer.php?file=06768727009223122821.jpg&lt;/a&gt;\n\nFormat : MKV \n\nQuality : BDRip 1080p \n\nVideo : MPEG-4 AVC, 13.0 Mbit / s, 1920x800 \n\nAudio : Russian (AC3, 6 ch, 384 kbit / s)\n\n        English ( DTS, 6 ch, 1509 kbit / s) \n\nSize : 13.07 GB \n\nSubtitles : English\n\nGuardians.of.the.Galaxy.2014.1080p.BluRay.x264.Rus.Eng-HDAccess.mkv\n\nFormat : Matroska\nFormat version : Version 4 / Version 2\nFile size : 13.1 GiB\nDuration : 2h 1mn\nOverall bit rate : 15.4 Mbps\nEncoded date : UTC 2014-11-17 20:04:13\nWriting application : mkvmerge v6.5.0 ('Isn't she lovely')\nbuilt on Oct 20 2013 12:50:05\nWriting library : libebml v1.3.0 + libmatroska v1.4.1\nDURATION : 02:00:51.232000000\nNUMBER_OF_FRAMES : 226601\nNUMBER_OF_BYTES : 174029568\n_STATISTICS_WRITING_APP : mkvmerge v7.3.0 ('Nouages')\n64bit built on Oct 22 2014 18:53:34\n_STATISTICS_WRITING_DATE_UTC : 2014-11-15 20:37:43\n_STATISTICS_TAGS : BPS DURATION NUMBER_OF_FRAMES NUMBER_OF_BYTES\n\nVideo\nID : 1\nFormat : AVC\nFormat/Info : Advanced Video Codec\nFormat profile : &lt;a class=&quot;__cf_email__&quot; href=&quot;/cdn-cgi/l/email-protection&quot; data-cfemail=&quot;773f1e101f373b435946&quot;&gt;[email&amp;#160;protected]&lt;/a&gt;&lt;script cf-hash='f9e31' type=&quot;text/javascript&quot;&gt;\n/* &lt;![CDATA[ */!function(){try{var t=&quot;currentScript&quot;in document?document.currentScript:function(){for(var t=document.getElementsByTagName(&quot;script&quot;),e=t.length;e--;)if(t[e].getAttribute(&quot;cf-hash&quot;))return t[e]}();if(t&amp;&amp;t.previousSibling){var e,r,n,i,c=t.previousSibling,a=c.getAttribute(&quot;data-cfemail&quot;);if(a){for(e=&quot;&quot;,r=parseInt(a.substr(0,2),16),n=2;a.length-n;n+=2)i=parseInt(a.substr(n,2),16)^r,e+=String.fromCharCode(i);e=document.createTextNode(e),c.parentNode.replaceChild(e,c)}}}catch(u){}}();/* ]]&gt; */&lt;/script&gt;\nFormat settings, CABAC : Yes\nFormat settings, ReFrames : 5 frames\nCodec ID : V_MPEG4/ISO/AVC\nDuration : 2h 1mn\nBit rate : 13.0 Mbps\nWidth : 1 920 pixels\nHeight : 800 pixels\nDisplay aspect ratio : 2.40:1\nFrame rate : 23.976 fps\nColor space : YUV\nChroma subsampling : 4:2:0\nBit depth : 8 bits\nScan type : Progressive\nBits/(Pixel*Frame) : 0.354\nStream size : 11.0 GiB (85%)\nWriting library : x264 core 142 r2479kMod dd79a61\nEncoding settings : cabac=1 / ref=5 / deblock=1:-3:-3 / analyse=0x3:0x133\n/ me=umh / subme=11 / psy=1 / fade_compensate=0.00 / psy_rd=1.03:0.00 / mixed_ref=1 / me_range=48\n/ chroma_me=1 / trellis=2 / 8x8dct=1 / cqm=0 / deadzone=21,11 / fast_pskip=0 / chroma_qp_offset=-2\n/ threads=18 / lookahead_threads=3 / sliced_threads=0 / nr=0 / decimate=1 / interlaced=0\n/ bluray_compat=0 / constrained_intra=0 / fgo=0 / bframes=9 / b_pyramid=2 / b_adapt=2\n/ b_bias=0 / direct=3 / weightb=1 / open_gop=0 / weightp=2 / keyint=250 / keyint_min=23 / scenecut=40\n/ intra_refresh=0 / rc_lookahead=40 / rc=crf / mbtree=0 / crf=15.8000 / qcomp=0.65 / qpmin=0\n/ qpmax=69 / qpstep=4 / vbv_maxrate=50000 / vbv_bufsize=62500 / crf_max=0.0 / nal_hrd=none\n/ filler=0 / ip_ratio=1.20 / pb_ratio=1.10 / aq=1:0.81\nLanguage : English\nDefault : Yes\nForced : No\nDURATION : 02:00:51.161000000\nNUMBER_OF_FRAMES : 173854\nNUMBER_OF_BYTES : 12135952661\n_STATISTICS_WRITING_APP : mkvmerge v7.3.0 ('Nouages') 64bit built on Oct 22 2014 18:53:34\n_STATISTICS_WRITING_DATE_UTC : 2014-11-15 20:37:43\n_STATISTICS_TAGS : BPS DURATION NUMBER_OF_FRAMES NUMBER_OF_BYTES\n\nAudio #1\nID : 2\nFormat : AC-3\nFormat/Info : Audio Coding 3\nMode extension : CM (complete main)\nCodec ID : A_AC3\nDuration : 2h 1mn\nBit rate mode : Constant\nBit rate : 384 Kbps\nChannel(s) : 6 channels\nChannel positions : Front: L C R, Side: L R, LFE\nSampling rate : 48.0 KHz\nBit depth : 16 bits\nCompression mode : Lossy\nStream size : 333 MiB (2%)\nLanguage : Russian\nDefault : Yes\nForced : No\n\nAudio #2\nID : 3\nFormat : DTS\nFormat/Info : Digital Theater Systems\nCodec ID : A_DTS\nDuration : 2h 1mn\nBit rate mode : Constant\nBit rate : 1 510 Kbps\nChannel(s) : 6 channels\nChannel positions : Front: L C R, Side: L R, LFE\nSampling rate : 48.0 KHz\nBit depth : 24 bits\nCompression mode : Lossy\nStream size : 1.28 GiB (10%)\nLanguage : English\nDefault : No\nForced : No\n\nAudio #3\nID : 4\nFormat : AC-3\nFormat/Info : Audio Coding 3\nMode extension : CM (complete main)\nCodec ID : A_AC3\nDuration : 2h 1mn\nBit rate mode : Constant\nBit rate : 192 Kbps\nChannel(s) : 2 channels\nChannel positions : Front: L R\nSampling rate : 48.0 KHz\nBit depth : 16 bits\nCompression mode : Lossy\nStream size : 166 MiB (1%)\nLanguage : English\nDefault : No\nForced : No\n\nMenu\n00:00:00.000 : en:00:00:00.000\n00:04:05.704 : en:00:04:05.704\n00:11:21.806 : en:00:11:21.806\n00:15:21.712 : en:00:15:21.712\n00:20:54.420 : en:00:20:54.420\n00:27:11.213 : en:00:27:11.213\n00:33:58.828 : en:00:33:58.828\n00:44:28.291 : en:00:44:28.291\n00:50:53.008 : en:00:50:53.008\n00:55:17.564 : en:00:55:17.564\n00:59:45.207 : en:00:59:45.207\n01:06:06.921 : en:01:06:06.921\n01:14:46.023 : en:01:14:46.023\n01:22:20.644 : en:01:22:20.644\n01:26:29.726 : en:01:26:29.726\n01:30:23.877 : en:01:30:23.877\n01:35:58.378 : en:01:35:58.378\n01:40:46.749 : en:01:40:46.749\n01:47:35.366 : en:01:47:35.366\n01:53:16.623 : en:01:53:16.623\n02:00:10.829 : en:02:00:10.829",
  "parsed": {
    "xt": "urn:btih:cc9266bb59f7789f62757d24d61470a87d14f04a",
    "dn": "Guardians of the Galaxy 2014 1080p BluRay x264 Rus Eng HDAccess ",
    "tr": [
      "udp://exodus.desync.com:6969",
      "udp://open.demonii.com:1337",
      "udp://tracker.coppersurfer.tk:6969",
      "udp://tracker.openbittorrent.com:80"
    ],
    "infoHash": "cc9266bb59f7789f62757d24d61470a87d14f04a",
    "infoHashBuffer": {
      "type": "Buffer",
      "data": [
        204,
        146,
        102,
        187,
        89,
        247,
        120,
        159,
        98,
        117,
        125,
        36,
        214,
        20,
        112,
        168,
        125,
        20,
        240,
        74
      ]
    },
    "name": "Guardians of the Galaxy 2014 1080p BluRay x264 Rus Eng HDAccess ",
    "announce": [
      "udp://exodus.desync.com:6969",
      "udp://open.demonii.com:1337",
      "udp://tracker.coppersurfer.tk:6969",
      "udp://tracker.openbittorrent.com:80"
    ],
    "urlList": []
  },
  "previous": 82,
  "peers": 35,
  "last_updated": "2016-12-27T13:19:18.517Z"
}